<svg width="34" height="51" viewBox="0 0 34 51" fill="none" xmlns="http://www.w3.org/2000/svg">
<path d="M16.8269 25.2404C16.8269 20.5938 20.5937 16.8269 25.2404 16.8269C29.8869 16.8269 33.6538 20.5938 33.6538 25.2404C33.6538 29.887 29.8869 33.6538 25.2404 33.6538C20.5937 33.6538 16.8269 29.887 16.8269 25.2404Z" fill="#1ABCFE"/>
<path d="M0 42.0673C0 37.4207 3.76683 33.6538 8.41346 33.6538H16.8269V42.0673C16.8269 46.7139 13.0601 50.4807 8.41346 50.4807C3.76683 50.4807 0 46.7139 0 42.0673Z" fill="#0ACF83"/>
<path d="M16.8269 0V16.8269H25.2404C29.887 16.8269 33.6538 13.0601 33.6538 8.41346C33.6538 3.76684 29.887 0 25.2404 0H16.8269Z" fill="#FF7262"/>
<path d="M0 8.41346C0 13.0601 3.76683 16.8269 8.41346 16.8269H16.8269V0H8.41346C3.76683 0 0 3.76683 0 8.41346Z" fill="#F24E1E"/>
<path d="M0 25.2404C0 29.887 3.76683 33.6538 8.41346 33.6538H16.8269V16.8269H8.41346C3.76683 16.8269 0 20.5938 0 25.2404Z" fill="#A259FF"/>
</svg>
