<svg width="154" height="34" viewBox="0 0 154 34" fill="none" xmlns="http://www.w3.org/2000/svg">
<path d="M52.376 24L49.176 12.08H51.512L54.024 22.24H53.416L56.04 12.08H58.296L60.904 22.24H60.296L62.808 12.08H65.144L61.944 24H59.448L56.808 14.112H57.512L54.872 24H52.376ZM69.4645 24V12.08H71.6405V24H69.4645ZM81.1893 24.192C80.4319 24.192 79.7279 24.0533 79.0773 23.776C78.4373 23.4987 77.8826 23.1147 77.4133 22.624C76.9546 22.1227 76.6186 21.5413 76.4053 20.88L78.2133 20.096C78.5013 20.7787 78.9173 21.3173 79.4613 21.712C80.0053 22.096 80.6186 22.288 81.3013 22.288C81.6853 22.288 82.0159 22.2293 82.2933 22.112C82.5813 21.984 82.7999 21.8133 82.9493 21.6C83.1093 21.3867 83.1893 21.1307 83.1893 20.832C83.1893 20.48 83.0826 20.192 82.8693 19.968C82.6666 19.7333 82.3573 19.552 81.9413 19.424L79.6533 18.688C78.7253 18.4 78.0266 17.968 77.5573 17.392C77.0879 16.816 76.8533 16.1387 76.8533 15.36C76.8533 14.6773 77.0186 14.0747 77.3493 13.552C77.6906 13.0293 78.1599 12.624 78.7573 12.336C79.3653 12.0373 80.0586 11.888 80.8373 11.888C81.5519 11.888 82.2079 12.016 82.8053 12.272C83.4026 12.5173 83.9146 12.864 84.3413 13.312C84.7786 13.7493 85.1039 14.2667 85.3173 14.864L83.5253 15.664C83.2906 15.0667 82.9386 14.608 82.4693 14.288C81.9999 13.9573 81.4559 13.792 80.8373 13.792C80.4746 13.792 80.1546 13.856 79.8773 13.984C79.5999 14.1013 79.3813 14.272 79.2213 14.496C79.0719 14.7093 78.9973 14.9653 78.9973 15.264C78.9973 15.5947 79.1039 15.888 79.3173 16.144C79.5306 16.3893 79.8559 16.5813 80.2933 16.72L82.4853 17.408C83.4346 17.7173 84.1439 18.144 84.6133 18.688C85.0933 19.232 85.3333 19.904 85.3333 20.704C85.3333 21.3867 85.1573 21.9893 84.8053 22.512C84.4533 23.0347 83.9679 23.4453 83.3493 23.744C82.7306 24.0427 82.0106 24.192 81.1893 24.192ZM90.2926 24V12.08H98.2126V14H92.4686V17.056H97.8926V18.976H92.4686V22.08H98.2126V24H90.2926Z" fill="white"/>
<g clip-path="url(#clip0_1_33)">
<path fill-rule="evenodd" clip-rule="evenodd" d="M30.6945 12.719C29.7489 12.0872 28.6372 11.75 27.5 11.75V6C29.7745 6 31.9979 6.67446 33.8891 7.9381C35.7802 9.20173 37.2542 10.9978 38.1246 13.0991C38.995 15.2005 39.2228 17.5128 38.779 19.7435C38.3353 21.9743 37.24 24.0234 35.6317 25.6317C34.0234 27.24 31.9743 28.3353 29.7435 28.779C27.5128 29.2228 25.2005 28.995 23.0991 28.1246C20.9978 27.2542 19.2017 25.7802 17.9381 23.8891C16.6745 21.9979 16 19.7745 16 17.5H21.75C21.75 18.6372 22.0872 19.7489 22.719 20.6945C23.3509 21.6401 24.2489 22.3771 25.2996 22.8123C26.3502 23.2475 27.5064 23.3614 28.6218 23.1395C29.7372 22.9177 30.7617 22.37 31.5659 21.5659C32.37 20.7617 32.9177 19.7372 33.1395 18.6218C33.3614 17.5064 33.2475 16.3502 32.8123 15.2996C32.3771 14.2489 31.6401 13.3509 30.6945 12.719Z" fill="#87C159"/>
<path fill-rule="evenodd" clip-rule="evenodd" d="M21.75 6C21.75 6.7551 21.6013 7.50281 21.3123 8.20043C21.0233 8.89805 20.5998 9.53193 20.0659 10.0659C19.5319 10.5998 18.8981 11.0233 18.2004 11.3123C17.5028 11.6013 16.7551 11.75 16 11.75L16 17.5C17.5102 17.5 19.0056 17.2026 20.4009 16.6246C21.7961 16.0467 23.0639 15.1996 24.1317 14.1317C25.1996 13.0639 26.0467 11.7961 26.6246 10.4009C27.2025 9.00561 27.5 7.5102 27.5 6L21.75 6Z" fill="#87C159"/>
</g>
<defs>
<clipPath id="clip0_1_33">
<rect width="23" height="23" fill="white" transform="translate(16 6)"/>
</clipPath>
</defs>
</svg>
