<svg width="94" height="45" viewBox="0 0 94 45" fill="none" xmlns="http://www.w3.org/2000/svg">
<path d="M50.639 0.389423C50.3331 0.430998 50.0273 1.47039 49.4156 2.05244C48.9787 2.4682 48.4544 2.4682 48.1485 2.92553C48.0174 3.09183 48.1048 3.42443 47.9738 3.71546C47.7116 4.33909 46.8815 4.42225 46.8815 5.04588C46.8815 5.75266 47.6242 5.91896 48.2359 6.41787C48.7165 6.83362 48.8039 7.12465 49.3282 7.29095C49.8088 7.45725 50.5516 6.95835 51.207 7.12465C51.7749 7.29095 52.2993 7.41568 52.4303 7.91459C52.5614 8.41349 52.4303 9.16185 51.7749 9.0787C51.5128 9.0787 50.5516 8.74609 49.4156 8.82925C47.9301 8.99555 46.3135 9.4113 46.1824 10.9496C46.1387 11.8227 47.231 12.7789 48.2359 12.6126C48.9787 12.4879 48.5854 11.6148 49.0224 11.2406C49.5904 10.7417 52.5614 13.0284 55.3577 13.0284C56.5374 13.0284 57.4112 12.7373 58.285 11.8643C58.3287 11.8227 58.4598 11.6148 58.5909 11.6148C58.722 11.6148 58.8967 11.7395 58.9404 11.7811C61.2124 13.4857 62.9164 16.8949 71.1305 16.9365C72.3102 16.9365 73.6209 17.4354 74.7132 18.3916C75.6744 19.2647 76.2424 20.5535 76.7667 21.8839C77.6406 23.8796 79.0824 25.8336 81.3544 27.954C81.4855 28.0787 83.3205 29.4507 83.4953 29.4923C83.4953 29.4923 83.6701 29.8249 83.6264 29.9912C83.5827 31.3216 83.3642 35.0634 86.379 35.2297C87.1217 35.2713 86.947 34.7723 86.947 34.4397C86.947 33.8161 86.8159 33.1093 87.2091 32.4857C87.6897 31.571 86.1605 31.1553 86.1605 29.1597C86.2042 27.6629 84.8934 27.9124 84.1944 26.7899C83.8448 26.1662 83.4516 25.7505 83.4516 24.9605C83.5827 20.4288 82.403 17.4354 81.8787 16.7286C81.4418 16.1465 81.0049 15.9802 81.4418 15.6892C83.9322 14.1509 84.5002 12.6958 84.5002 12.6958C85.8547 9.78548 86.9906 7.08308 88.6509 5.91896C88.9568 5.66951 89.8306 5.04588 90.3549 4.838C91.8841 4.13122 92.6706 3.75704 93.1075 3.34128C93.7629 2.71765 94.3746 1.34566 93.7192 0.514149C92.8454 -0.525238 91.4472 0.264696 90.7918 0.680451C86.2042 3.25813 85.5488 7.74828 83.9759 10.326C82.7088 12.4047 80.699 13.943 78.864 14.0678C77.4658 14.1925 75.9803 13.9015 74.5385 13.2778C70.9557 11.7811 68.9896 9.91021 68.509 9.53603C67.5477 8.82925 60.0764 1.88614 54.0032 1.59511C54.0032 1.59511 53.2605 0.13997 53.0857 0.13997C52.6488 0.0983944 52.1682 1.01305 51.8623 1.13778C51.4691 1.42881 50.9448 0.306272 50.639 0.389423ZM23.9869 41.7155C23.4189 41.7155 22.982 41.2581 22.9383 40.7176V22.8402H16.6466V42.547C16.6466 43.5448 17.5205 44.3347 18.4817 44.3347H29.361C30.4096 44.3347 31.196 43.5448 31.196 42.547V22.8818H25.0355V40.7592C24.9918 41.2997 24.5549 41.7155 23.9869 41.7155ZM44.8716 22.8818H35.3905C34.2982 22.8818 33.3806 23.7548 33.3806 24.7942V44.3347H39.5849V26.4573C39.5849 25.8752 40.0655 25.4594 40.6335 25.4594C41.2452 25.4594 41.6821 25.8752 41.6821 26.4573V44.3763H47.8864V26.3741C47.8864 25.8752 48.367 25.3763 48.935 25.3763C49.503 25.3763 49.9836 25.8336 49.9836 26.3741V44.2931H56.1878V24.7527C56.1878 23.6717 55.2703 22.8402 54.178 22.8402H44.8716V22.8818ZM12.4959 38.9299H6.20426V44.3347H0V22.8818H12.5833C13.6756 22.8818 14.5931 23.7548 14.5931 24.8358V37.0174C14.5931 38.0984 13.6756 38.9299 12.4959 38.9299ZM8.34516 26.4573C8.34516 25.8752 7.86455 25.4179 7.29655 25.4179H6.24795V36.2691H7.29655C7.86455 36.2691 8.34516 35.8533 8.34516 35.2297V26.4573ZM66.1933 44.4179V39.0546H64.0524V44.4179H57.8044V24.9605C57.8044 23.8796 58.722 23.0896 59.8143 23.0896H70.344C71.4363 23.0896 72.3539 23.9627 72.3539 24.9605V44.4179H66.1933ZM66.1933 36.4354V26.6236C66.1933 26.1246 65.7127 25.6673 65.1447 25.6673C64.5767 25.6673 64.0961 26.1246 64.0961 26.6236V36.4769L66.1933 36.4354Z" fill="#FFFFFE"/>
<path d="M78.0338 44.1685C76.3298 44.1685 74.9754 42.8796 74.9754 41.2582C74.9754 39.6367 76.3298 38.3479 78.0338 38.3479C79.7378 38.3479 81.0922 39.6367 81.0922 41.2582C81.0922 42.8796 79.7378 44.1685 78.0338 44.1685ZM78.0338 38.8052C76.592 38.8052 75.456 39.9278 75.456 41.2582C75.456 42.5886 76.6357 43.7111 78.0338 43.7111C79.432 43.7111 80.6116 42.5886 80.6116 41.2582C80.6116 39.9278 79.4756 38.8052 78.0338 38.8052Z" fill="#FFFFFE"/>
<path d="M77.1162 40.0525H78.1212C78.3396 40.0525 78.5144 40.0941 78.6455 40.2188C78.8202 40.3435 78.9076 40.5098 78.9076 40.7593C78.9076 41.0919 78.7328 41.3413 78.427 41.4661L79.0387 42.5886H78.5581L78.0338 41.5076H77.5532V42.5886H77.1599V40.0525H77.1162ZM77.5095 41.175H78.1212C78.2522 41.175 78.3833 41.1335 78.4707 41.0503C78.5581 40.9672 78.6018 40.884 78.6018 40.7593C78.6018 40.6345 78.5581 40.5098 78.4707 40.4682C78.3833 40.4267 78.2959 40.3851 78.1648 40.3851H77.5532V41.175H77.5095Z" fill="white"/>
</svg>
