<svg width="38" height="37" viewBox="0 0 38 37" fill="none" xmlns="http://www.w3.org/2000/svg">
<path d="M19 36.0636C29.4934 36.0636 38 27.9905 38 18.0318C38 8.07312 29.4934 0 19 0C8.50659 0 0 8.07312 0 18.0318C0 27.9905 8.50659 36.0636 19 36.0636Z" fill="#FF4500"/>
<path d="M31.6667 18.0317C31.6667 16.5765 30.4222 15.3955 28.8889 15.3955C28.1333 15.3955 27.4667 15.6697 26.9778 16.1337C25.0889 14.8472 22.4667 14.0036 19.5778 13.8981L20.8444 8.26715L24.9556 9.08965C25 10.0809 25.8667 10.8823 26.9333 10.8823C28.0222 10.8823 28.9111 10.0387 28.9111 9.00529C28.9111 7.97189 28.0222 7.1283 26.9333 7.1283C26.1556 7.1283 25.4889 7.55009 25.1778 8.18279L20.5778 7.25484C20.4444 7.23375 20.3111 7.25484 20.2 7.3181C20.0889 7.38137 20.0222 7.48682 19.9778 7.61336L18.5778 13.8981C15.6222 13.9825 12.9778 14.805 11.0667 16.1337C10.5778 15.6908 9.88889 15.3955 9.15556 15.3955C7.62222 15.3955 6.37778 16.5765 6.37778 18.0317C6.37778 19.1073 7.04444 20.0142 8.02222 20.436C7.97778 20.6891 7.95555 20.9632 7.95555 21.2374C7.95555 25.2867 12.9111 28.5556 19.0444 28.5556C25.1778 28.5556 30.1333 25.2867 30.1333 21.2374C30.1333 20.9632 30.1111 20.7102 30.0667 20.4571C30.9778 20.0353 31.6667 19.1073 31.6667 18.0317ZM12.6667 19.9087C12.6667 18.8753 13.5556 18.0317 14.6444 18.0317C15.7333 18.0317 16.6222 18.8753 16.6222 19.9087C16.6222 20.9421 15.7333 21.7857 14.6444 21.7857C13.5556 21.7857 12.6667 20.9421 12.6667 19.9087ZM23.7111 24.8649C22.3556 26.1513 19.7778 26.2357 19.0222 26.2357C18.2667 26.2357 15.6667 26.1303 14.3333 24.8649C14.1333 24.6751 14.1333 24.3587 14.3333 24.1689C14.5333 23.9791 14.8667 23.9791 15.0667 24.1689C15.9111 24.9703 17.7333 25.2656 19.0444 25.2656C20.3556 25.2656 22.1556 24.9703 23.0222 24.1689C23.2222 23.9791 23.5556 23.9791 23.7556 24.1689C23.9111 24.3798 23.9111 24.6751 23.7111 24.8649ZM23.3556 21.7857C22.2667 21.7857 21.3778 20.9421 21.3778 19.9087C21.3778 18.8753 22.2667 18.0317 23.3556 18.0317C24.4444 18.0317 25.3333 18.8753 25.3333 19.9087C25.3333 20.9421 24.4444 21.7857 23.3556 21.7857Z" fill="white"/>
</svg>
