<svg width="88" height="37" viewBox="0 0 88 37" fill="none" xmlns="http://www.w3.org/2000/svg">
<path fill-rule="evenodd" clip-rule="evenodd" d="M88 18.9694C88 12.6953 84.9689 7.74463 79.1755 7.74463C73.3578 7.74463 69.8378 12.6953 69.8378 18.9204C69.8378 26.2973 73.9933 30.0226 79.9578 30.0226C82.8667 30.0226 85.0667 29.3608 86.7289 28.4295V23.5279C85.0667 24.3612 83.16 24.8758 80.74 24.8758C78.3689 24.8758 76.2667 24.0426 75.9978 21.1506H87.9511C87.9511 20.832 88 19.5576 88 18.9694ZM75.9244 16.6411C75.9244 13.8717 77.6111 12.7198 79.1511 12.7198C80.6422 12.7198 82.2311 13.8717 82.2311 16.6411H75.9244Z" fill="white"/>
<path fill-rule="evenodd" clip-rule="evenodd" d="M60.4023 7.74463C58.0067 7.74463 56.4667 8.87201 55.6111 9.65627L55.2934 8.13676H49.9156V36.7133L56.0267 35.4144L56.0511 28.4785C56.9311 29.1158 58.2267 30.0226 60.3778 30.0226C64.7534 30.0226 68.7378 26.4934 68.7378 18.7243C68.7134 11.6169 64.68 7.74463 60.4023 7.74463ZM58.9356 24.6308C57.4934 24.6308 56.6378 24.1161 56.0511 23.4789L56.0267 14.3863C56.6623 13.6756 57.5423 13.1854 58.9356 13.1854C61.16 13.1854 62.7 15.6853 62.7 18.8958C62.7 22.1799 61.1845 24.6308 58.9356 24.6308Z" fill="white"/>
<path fill-rule="evenodd" clip-rule="evenodd" d="M41.5067 6.2986L47.6422 4.97516V0L41.5067 1.29893V6.2986Z" fill="white"/>
<path d="M47.6422 8.16125H41.5067V29.6059H47.6422V8.16125Z" fill="white"/>
<path fill-rule="evenodd" clip-rule="evenodd" d="M34.9311 9.97489L34.54 8.16129H29.26V29.6059H35.3711V15.0726C36.8133 13.1855 39.2578 13.5286 40.0156 13.7982V8.16129C39.2333 7.86719 36.3733 7.32801 34.9311 9.97489Z" fill="white"/>
<path fill-rule="evenodd" clip-rule="evenodd" d="M22.7089 2.8429L16.7444 4.11732L16.72 23.7484C16.72 27.3756 19.4333 30.047 23.0511 30.047C25.0555 30.047 26.5222 29.6793 27.3289 29.2382V24.263C26.5466 24.5816 22.6844 25.709 22.6844 22.0818V13.3814H27.3289V8.16117H22.6844L22.7089 2.8429Z" fill="white"/>
<path fill-rule="evenodd" clip-rule="evenodd" d="M6.18445 14.3863C6.18445 13.4305 6.96667 13.0629 8.26222 13.0629C10.12 13.0629 12.4667 13.6266 14.3244 14.6314V8.872C12.2956 8.06323 10.2911 7.74463 8.26222 7.74463C3.3 7.74463 0 10.3425 0 14.6804C0 21.4447 9.28889 20.3663 9.28889 23.2828C9.28889 24.4102 8.31111 24.7778 6.94222 24.7778C4.91333 24.7778 2.32222 23.9445 0.268889 22.8172V28.6501C2.54222 29.6304 4.84 30.0471 6.94222 30.0471C12.0267 30.0471 15.5222 27.5227 15.5222 23.1358C15.4978 15.8323 6.18445 17.1313 6.18445 14.3863Z" fill="white"/>
</svg>
